<svg width="53.000000" height="52.000000" viewBox="0 0 53 52" fill="none" xmlns="http://www.w3.org/2000/svg" xmlns:xlink="http://www.w3.org/1999/xlink">
	<desc>
			Created with Pixso.
	</desc>
	<defs>
		<clipPath id="clip1_20">
			<rect id="facebook" width="25.000000" height="25.000000" transform="translate(14.000000 13.000000)" fill="white" fill-opacity="0"/>
		</clipPath>
		<clipPath id="clip1_18">
			<rect id="1" width="53.000000" height="52.000000" fill="white" fill-opacity="0"/>
		</clipPath>
	</defs>
	<rect id="1" width="53.000000" height="52.000000" fill="#000000" fill-opacity="0"/>
	<g clip-path="url(#clip1_18)">
		<path id="Круг" d="M51.0001 25.9998C51.0001 12.1929 39.8072 1 25.9998 1C12.193 1 1.00011 12.1929 1.00011 25.9998C1.00011 39.8071 12.193 51.0002 25.9998 51.0002C39.8072 51.0002 51.0001 39.8071 51.0001 25.9998ZM47.3161 17.1709Q49.0001 21.2366 49.0001 25.9998Q49.0001 30.7634 47.3159 34.8293Q45.6317 38.8953 42.2635 42.2637Q38.8952 45.6321 34.8292 47.3162Q30.7633 49.0002 25.9998 49.0002Q21.2371 49.0002 17.1717 47.3167Q13.1053 45.6323 9.73666 42.2637Q6.36835 38.8953 4.68422 34.8291Q3.00011 30.7632 3.00011 25.9998Q3.00011 21.2366 4.68404 17.1711Q6.36817 13.105 9.73663 9.73657Q13.105 6.36816 17.1711 4.68408Q21.2367 3 25.9998 3Q30.7637 3 34.8298 4.68457Q38.8955 6.36865 42.2635 9.73657Q45.632 13.105 47.3161 17.1709Z" fill="#FFFFFF" fill-opacity="1.000000" fill-rule="evenodd"/>
		<rect id="facebook" width="25.000000" height="25.000000" transform="translate(14.000000 13.000000)" fill="#FFFFFF" fill-opacity="0"/>
		<g clip-path="url(#clip1_20)">
			<path id="Vector" d="M30.6636 17.1511L32.9459 17.1511L32.9459 13.176C32.5521 13.1218 31.1979 13 29.6209 13C26.3302 13 24.0761 15.0698 24.0761 18.874L24.0761 22.375L20.4448 22.375L20.4448 26.8188L24.0761 26.8188L24.0761 38L28.5282 38L28.5282 26.8198L32.0125 26.8198L32.5657 22.376L28.5271 22.376L28.5271 19.3147C28.5282 18.0303 28.874 17.1511 30.6636 17.1511Z" fill="#FFFFFF" fill-opacity="1.000000" fill-rule="nonzero"/>
		</g>
	</g>
</svg>
