<?xml version="1.0" standalone="no"?>
<!DOCTYPE svg PUBLIC "-//W3C//DTD SVG 20010904//EN"
 "http://www.w3.org/TR/2001/REC-SVG-20010904/DTD/svg10.dtd">
<svg version="1.0" xmlns="http://www.w3.org/2000/svg"
 width="64.000000pt" height="64.000000pt" viewBox="0 0 64.000000 64.000000"
 preserveAspectRatio="xMidYMid meet">
<metadata>
Created by potrace 1.16, written by Peter Selinger 2001-2019
</metadata>
<g transform="translate(0.000000,64.000000) scale(0.100000,-0.100000)"
fill="#c70101" stroke="none">
<path d="M156 495 c-117 -123 -137 -148 -134 -172 2 -20 11 -30 32 -38 28 -10
32 -6 148 114 l118 125 118 -125 c116 -120 120 -124 148 -114 21 8 30 18 32
38 3 24 -17 49 -134 172 -111 118 -142 145 -164 145 -22 0 -53 -27 -164 -145z"/>
<path d="M202 258 c-191 -199 -201 -215 -170 -246 32 -32 61 -14 176 105 l112
118 113 -118 c86 -90 118 -117 138 -117 61 0 64 46 7 109 -132 145 -240 251
-258 251 -12 0 -58 -40 -118 -102z"/>
</g>
</svg>
