<svg width="53" height="52" fill="none" xmlns="http://www.w3.org/2000/svg"><defs><clipPath id="b"><path transform="translate(14 13)" fill="#fff" fill-opacity="0" d="M0 0h25v25H0z"/></clipPath><clipPath id="a"><path fill="#fff" fill-opacity="0" d="M0 0h53v52H0z"/></clipPath></defs><path d="M0 0h53v52H0z"/><g clip-path="url(#a)"><path d="M51 26C51 12.193 39.807 1 26 1S1 12.193 1 26s11.193 25 25 25 25-11.193 25-25zm-3.684-8.83Q49 21.238 49 26t-1.684 8.83q-1.684 4.065-5.053 7.434-3.368 3.368-7.434 5.052Q30.763 49 26 49q-4.762 0-8.827-1.683-4.067-1.685-7.435-5.053-3.369-3.369-5.053-7.435Q3 30.763 3 26q0-4.762 1.684-8.828t5.053-7.434q3.368-3.369 7.434-5.053Q21.237 3 26 3q4.764 0 8.83 1.685 4.066 1.684 7.434 5.052 3.368 3.368 5.052 7.434z" fill="#FFF" fill-rule="evenodd"/><path d="M14 13h25v25H14z"/><g clip-path="url(#b)"><path d="M30.664 17.151h2.282v-3.975c-.394-.054-1.748-.176-3.325-.176-3.29 0-5.545 2.07-5.545 5.874v3.501h-3.631v4.444h3.631V38h4.452V26.82h3.485l.553-4.444h-4.039v-3.061c.001-1.285.347-2.164 2.137-2.164z" fill="#FFF"/></g></g></svg>