<svg width="52" height="52" fill="none" xmlns="http://www.w3.org/2000/svg"><defs><clipPath id="b"><path transform="translate(14 14)" fill="#fff" fill-opacity="0" d="M0 0h24v24H0z"/></clipPath><clipPath id="a"><path fill="#fff" fill-opacity="0" d="M0 0h52v52H0z"/></clipPath></defs><path d="M0 0h52v52H0z"/><g clip-path="url(#a)"><path d="M51 26C51 12.193 39.807 1 26 1S1 12.193 1 26s11.193 25 25 25 25-11.193 25-25zm-3.684-8.83Q49 21.238 49 26t-1.684 8.83q-1.684 4.065-5.053 7.434-3.368 3.368-7.434 5.052Q30.763 49 26 49q-4.763 0-8.829-1.684-4.066-1.684-7.434-5.052-3.369-3.369-5.053-7.435Q3 30.763 3 26q0-4.762 1.684-8.828t5.053-7.434q3.368-3.369 7.434-5.053Q21.236 3 26 3t8.83 1.684q4.065 1.684 7.433 5.053 3.369 3.368 5.053 7.434z" fill="#FFF" fill-rule="evenodd"/><path d="M14 14h24v24H14z"/><g clip-path="url(#b)" fill="#FFF"><path d="M37.977 21.056c-.057-1.275-.263-2.152-.558-2.912a5.856 5.856 0 00-1.388-2.128 5.902 5.902 0 00-2.124-1.383c-.764-.295-1.636-.502-2.911-.558-1.285-.06-1.693-.075-4.951-.075-3.259 0-3.667.014-4.947.07-1.275.056-2.152.263-2.911.558a5.856 5.856 0 00-2.129 1.388 5.908 5.908 0 00-1.383 2.124c-.295.764-.502 1.636-.558 2.911-.06 1.285-.075 1.693-.075 4.951 0 3.259.014 3.667.07 4.947.057 1.275.263 2.152.559 2.911a5.922 5.922 0 001.387 2.129 5.9 5.9 0 002.124 1.383c.764.295 1.636.501 2.912.558 1.28.056 1.688.07 4.946.07s3.666-.014 4.946-.07c1.275-.057 2.152-.263 2.912-.558a6.14 6.14 0 003.511-3.512c.296-.764.502-1.636.558-2.911.056-1.28.07-1.688.07-4.947 0-3.258-.004-3.666-.06-4.946zm-2.162 9.799c-.051 1.172-.248 1.805-.412 2.227a3.981 3.981 0 01-2.279 2.279c-.422.164-1.06.36-2.227.412-1.266.056-1.645.07-4.848.07-3.202 0-3.586-.014-4.848-.07-1.172-.052-1.805-.248-2.227-.412a3.692 3.692 0 01-1.378-.896 3.73 3.73 0 01-.895-1.378c-.165-.422-.361-1.06-.413-2.227-.056-1.266-.07-1.646-.07-4.848s.014-3.587.07-4.848c.052-1.172.248-1.805.413-2.227a3.65 3.65 0 01.9-1.379 3.726 3.726 0 011.378-.895c.422-.164 1.06-.361 2.227-.413 1.266-.056 1.646-.07 4.848-.07 3.207 0 3.587.014 4.848.07 1.172.052 1.805.249 2.227.413.52.192.994.497 1.378.895.399.39.703.858.896 1.379.164.422.36 1.06.412 2.227.056 1.266.07 1.646.07 4.848s-.014 3.577-.07 4.843z"/><path d="M26.044 19.837a6.167 6.167 0 00-6.165 6.165 6.167 6.167 0 006.165 6.166 6.167 6.167 0 006.166-6.166 6.167 6.167 0 00-6.166-6.165zm0 10.165a4 4 0 11.002-8 4 4 0 01-.002 8zm7.849-10.409a1.44 1.44 0 11-2.88 0 1.44 1.44 0 012.88 0z"/></g></g></svg>