<svg width="53" height="52" fill="none" xmlns="http://www.w3.org/2000/svg"><defs><clipPath id="b"><path transform="translate(15 14)" fill="#fff" fill-opacity="0" d="M0 0h24v24H0z"/></clipPath><clipPath id="a"><path fill="#fff" fill-opacity="0" d="M0 0h53v52H0z"/></clipPath></defs><path d="M0 0h53v52H0z"/><g clip-path="url(#a)"><path d="M52 26C52 12.193 40.807 1 27 1S2 12.193 2 26s11.193 25 25 25 25-11.193 25-25zm-3.684-8.829Q50 21.237 50 26q0 4.763-1.684 8.829-1.684 4.066-5.053 7.435-3.368 3.368-7.435 5.053Q31.763 49 27 49q-4.763 0-8.83-1.684-4.065-1.684-7.434-5.052-3.368-3.369-5.052-7.435Q4 30.763 4 26q0-4.762 1.684-8.828t5.052-7.434q3.368-3.368 7.434-5.052Q22.236 3 27 3q4.763 0 8.829 1.684 4.066 1.684 7.434 5.053 3.37 3.368 5.053 7.434z" fill="#FFF" fill-rule="evenodd"/><path d="M15 14h24v24H15z"/><g clip-path="url(#b)"><path d="M27.326 14c-6.579.001-10.076 4.216-10.076 8.812 0 2.131 1.191 4.79 3.098 5.633.544.245.472-.054.94-1.844a.425.425 0 00-.102-.417c-2.726-3.153-.532-9.635 5.751-9.635 9.093 0 7.394 12.582 1.582 12.582-1.498 0-2.614-1.176-2.261-2.631.428-1.733 1.266-3.596 1.266-4.845 0-3.148-4.69-2.68-4.69 1.49 0 1.29.456 2.159.456 2.159s-1.509 6.096-1.789 7.235c-.474 1.928.064 5.049.111 5.318.029.148.195.195.288.073.149-.195 1.973-2.797 2.484-4.678.186-.685.949-3.465.949-3.465.503.908 1.953 1.668 3.498 1.668 4.596 0 7.918-4.04 7.918-9.053C36.733 17.596 32.62 14 27.326 14z" fill="#FFF"/></g></g></svg>