<svg version="1.0" xmlns="http://www.w3.org/2000/svg" width="85.333" height="85.333" viewBox="0 0 64 64"><g fill="#c70101"><path d="M15.6 14.5C3.9 26.8 1.9 29.3 2.2 31.7c.2 2 1.1 3 3.2 3.8 2.8 1 3.2.6 14.8-11.4L32 11.6l11.8 12.5c11.6 12 12 12.4 14.8 11.4 2.1-.8 3-1.8 3.2-3.8.3-2.4-1.7-4.9-13.4-17.2C37.3 2.7 34.2 0 32 0c-2.2 0-5.3 2.7-16.4 14.5z"/><path d="M20.2 38.2C1.1 58.1.1 59.7 3.2 62.8c3.2 3.2 6.1 1.4 17.6-10.5L32 40.5l11.3 11.8c8.6 9 11.8 11.7 13.8 11.7 6.1 0 6.4-4.6.7-10.9C44.6 38.6 33.8 28 32 28c-1.2 0-5.8 4-11.8 10.2z"/></g></svg>